<svg xmlns="http://www.w3.org/2000/svg" width="224" height="50" viewBox="0 0 224 50" fill="none"><path fill-rule="evenodd" clip-rule="evenodd" d="M101.756 11.2105H97.5703C97.3959 11.634 97.2464 12.0077 97.1219 12.3316C96.9973 12.6554 96.8977 12.9419 96.8229 13.1911C96.7482 13.4153 96.6984 13.6146 96.6735 13.789C96.6236 13.9634 96.5987 14.1004 96.5987 14.2C96.5987 14.499 96.6984 14.6983 96.8977 14.7979C97.0721 14.8976 97.3835 14.9474 97.8319 14.9474V15.5453H94.0576V14.9474C94.2818 14.9225 94.4811 14.8851 94.6555 14.8353C94.8299 14.7855 94.9794 14.7107 95.104 14.6111C95.2285 14.5114 95.3406 14.3869 95.4403 14.2374C95.5399 14.0879 95.6396 13.9135 95.7392 13.7142L99.8125 3.5498H100.485L103.998 12.3316C104.247 12.9295 104.459 13.4028 104.633 13.7516C104.807 14.1004 104.982 14.362 105.156 14.5364C105.306 14.7107 105.48 14.8228 105.679 14.8727C105.879 14.9225 106.115 14.9474 106.389 14.9474V15.5453H101.307V14.9474C101.855 14.9474 102.229 14.8976 102.428 14.7979C102.628 14.6983 102.727 14.5239 102.727 14.2748C102.727 14.1751 102.727 14.0755 102.727 13.9758C102.727 13.9011 102.715 13.8139 102.69 13.7142C102.64 13.5897 102.603 13.4651 102.578 13.3405C102.528 13.216 102.466 13.0665 102.391 12.8921L101.756 11.2105ZM97.9066 10.4257H101.457L99.7377 5.82933L97.9066 10.4257Z" fill="#151C42"></path><path d="M115.134 12.78L119.207 3.5498H122.683V4.14771C122.359 4.14771 122.097 4.18508 121.898 4.25982C121.674 4.33456 121.512 4.45912 121.412 4.63351C121.312 4.8079 121.238 5.04457 121.188 5.34352C121.163 5.64248 121.15 6.02863 121.15 6.50197V12.5932C121.15 13.1163 121.163 13.5274 121.188 13.8263C121.238 14.1253 121.325 14.362 121.449 14.5364C121.574 14.7107 121.748 14.8228 121.972 14.8727C122.197 14.9225 122.483 14.9474 122.832 14.9474V15.5453H117.787V14.9474C118.161 14.9474 118.46 14.9225 118.684 14.8727C118.908 14.7979 119.083 14.6858 119.207 14.5364C119.332 14.3869 119.406 14.1627 119.431 13.8637C119.481 13.5897 119.506 13.2035 119.506 12.7053V5.49301H119.357L114.798 15.6948H114.461L109.977 5.49301H109.902V12.5932C109.902 13.1163 109.927 13.5274 109.977 13.8263C110.027 14.1253 110.102 14.362 110.201 14.5364C110.326 14.7107 110.5 14.8228 110.724 14.8727C110.949 14.9225 111.248 14.9474 111.621 14.9474V15.5453H107.249V14.9474C107.623 14.9474 107.922 14.9225 108.146 14.8727C108.37 14.7979 108.544 14.6858 108.669 14.5364C108.794 14.3869 108.881 14.1627 108.931 13.8637C108.956 13.5897 108.968 13.2035 108.968 12.7053V6.38987C108.968 5.94144 108.956 5.5802 108.931 5.30616C108.881 5.00721 108.806 4.78299 108.706 4.63351C108.607 4.45912 108.445 4.33456 108.221 4.25982C108.021 4.20999 107.76 4.17263 107.436 4.14771V3.5498H111.135L115.059 12.78H115.134Z" fill="#151C42"></path><path d="M127.989 8.96834C128.562 8.96834 129.035 8.93098 129.409 8.85624C129.783 8.7815 130.082 8.66938 130.306 8.51991C130.53 8.39534 130.692 8.2085 130.792 7.95937C130.891 7.73515 130.941 7.47358 130.941 7.17462H131.502V11.4347H130.941C130.941 11.1108 130.904 10.8368 130.829 10.6126C130.729 10.3884 130.567 10.2015 130.343 10.052C130.119 9.90257 129.82 9.79046 129.446 9.71572C129.073 9.61607 128.587 9.56625 127.989 9.56625V13.1163C127.989 13.4651 128.039 13.7391 128.138 13.9384C128.213 14.1627 128.35 14.3495 128.549 14.499C128.749 14.6485 129.023 14.7481 129.372 14.7979C129.695 14.8478 130.107 14.8727 130.605 14.8727C131.153 14.8727 131.614 14.8353 131.987 14.7606C132.361 14.6858 132.685 14.5613 132.959 14.3869C133.208 14.1876 133.42 13.9384 133.594 13.6395C133.744 13.3156 133.868 12.9295 133.968 12.481H134.566L134.342 15.5453H124.663V14.9474C125.012 14.9474 125.298 14.9225 125.523 14.8727C125.747 14.8228 125.921 14.7357 126.046 14.6111C126.17 14.4865 126.258 14.3121 126.307 14.0879C126.332 13.8388 126.345 13.5398 126.345 13.1911V5.90406C126.345 5.55528 126.332 5.26879 126.307 5.04457C126.282 4.82036 126.208 4.64597 126.083 4.52141C125.983 4.37193 125.822 4.28473 125.597 4.25982C125.398 4.20999 125.136 4.17263 124.813 4.14771V3.5498H133.819L133.968 6.27775H133.407C133.358 5.87915 133.258 5.54283 133.109 5.26879C132.959 4.99475 132.76 4.78299 132.511 4.63351C132.286 4.48403 131.987 4.37193 131.614 4.29719C131.24 4.24736 130.779 4.22245 130.231 4.22245H128.251C128.076 4.22245 127.989 4.30965 127.989 4.48404V8.96834Z" fill="#151C42"></path><path fill-rule="evenodd" clip-rule="evenodd" d="M145.926 6.57671C145.926 7.39884 145.677 8.08394 145.179 8.63202C144.68 9.1801 143.883 9.55379 142.787 9.7531L146.225 13.9011C146.499 14.2249 146.81 14.4616 147.159 14.6111C147.483 14.7606 147.882 14.8727 148.355 14.9474V15.5453H145.365L141.516 10.65C141.392 10.4756 141.267 10.3385 141.143 10.2389C141.018 10.1392 140.894 10.0521 140.769 9.97731C140.644 9.92749 140.495 9.90257 140.321 9.90257C140.146 9.87766 139.947 9.8652 139.723 9.8652V13.1163C139.723 13.49 139.735 13.8014 139.76 14.0506C139.81 14.2997 139.909 14.4865 140.059 14.6111C140.208 14.7606 140.433 14.8602 140.732 14.91C141.006 14.935 141.379 14.9474 141.853 14.9474V15.5453H136.359V14.9474C136.708 14.9474 136.995 14.9225 137.219 14.8727C137.443 14.8228 137.617 14.7357 137.742 14.6111C137.867 14.4865 137.954 14.3121 138.004 14.0879C138.053 13.8388 138.078 13.5398 138.078 13.1911V5.90406C138.078 5.55528 138.053 5.26879 138.004 5.04457C137.979 4.82036 137.904 4.64597 137.779 4.52141C137.68 4.37193 137.53 4.28473 137.331 4.25982C137.107 4.20999 136.833 4.17263 136.509 4.14771V3.5498H141.404C142.849 3.5498 143.958 3.81139 144.73 4.33456C145.527 4.88264 145.926 5.63003 145.926 6.57671ZM139.723 9.08044H140.806C141.853 9.08044 142.625 8.8936 143.123 8.51991C143.621 8.14621 143.871 7.52339 143.871 6.65144C143.871 5.80441 143.671 5.19405 143.273 4.82036C142.874 4.47158 142.251 4.29719 141.404 4.29719H139.984C139.81 4.29719 139.723 4.38439 139.723 4.55878V9.08044Z" fill="#151C42"></path><path d="M152.391 12.5932C152.391 13.1163 152.403 13.5274 152.428 13.8263C152.478 14.1253 152.565 14.362 152.69 14.5364C152.814 14.7107 152.988 14.8228 153.213 14.8727C153.437 14.9225 153.723 14.9474 154.072 14.9474V15.5453H149.027V14.9474C149.401 14.9474 149.7 14.9225 149.924 14.8727C150.148 14.7979 150.323 14.6858 150.447 14.5364C150.572 14.3869 150.647 14.1627 150.672 13.8637C150.721 13.5897 150.746 13.2035 150.746 12.7053V6.38987C150.746 5.94144 150.721 5.5802 150.672 5.30616C150.647 5.00721 150.584 4.78299 150.485 4.63351C150.36 4.45912 150.198 4.33456 149.999 4.25982C149.8 4.20999 149.526 4.17263 149.177 4.14771V3.5498H153.923V4.14771C153.599 4.14771 153.337 4.18508 153.138 4.25982C152.914 4.33456 152.752 4.45912 152.652 4.63351C152.553 4.8079 152.478 5.04457 152.428 5.34352C152.403 5.64248 152.391 6.02863 152.391 6.50197V12.5932Z" fill="#151C42"></path><path d="M165.77 3.54987H166.181L166.33 7.13731H165.77C165.545 6.21554 165.097 5.49306 164.424 4.96989C163.776 4.47163 162.992 4.22251 162.07 4.22251C161.422 4.22251 160.849 4.34707 160.351 4.5962C159.853 4.84533 159.442 5.19411 159.118 5.64254C158.769 6.11589 158.495 6.68888 158.296 7.36153C158.121 8.03417 158.034 8.80647 158.034 9.67841C158.034 11.3476 158.383 12.6306 159.08 13.5274C159.778 14.4243 160.787 14.8727 162.107 14.8727C164.125 14.8727 165.421 13.8015 165.994 11.659H166.629V15.5454H166.068L165.695 14.3122C164.624 15.234 163.303 15.6949 161.734 15.6949C160.862 15.6949 160.064 15.5578 159.342 15.2838C158.644 15.0098 158.047 14.6112 157.548 14.088C157.025 13.5897 156.626 12.9669 156.352 12.2195C156.078 11.4721 155.941 10.65 155.941 9.75316C155.941 8.80647 156.091 7.94698 156.39 7.17468C156.689 6.37747 157.1 5.70482 157.623 5.15674C158.146 4.58374 158.769 4.14777 159.491 3.84881C160.239 3.54986 161.049 3.40039 161.92 3.40039C162.543 3.40039 163.129 3.48758 163.677 3.66197C164.225 3.83636 164.823 4.12286 165.471 4.52147L165.77 3.54987Z" fill="#151C42"></path><path fill-rule="evenodd" clip-rule="evenodd" d="M175.522 11.2105H171.337C171.163 11.634 171.013 12.0077 170.888 12.3316C170.764 12.6554 170.664 12.9419 170.59 13.1911C170.515 13.4153 170.465 13.6146 170.44 13.789C170.415 13.9634 170.403 14.1004 170.403 14.2C170.403 14.499 170.49 14.6983 170.664 14.7979C170.864 14.8976 171.175 14.9474 171.598 14.9474V15.5453H167.824V14.9474C168.048 14.9225 168.248 14.8851 168.422 14.8353C168.597 14.7855 168.746 14.7107 168.871 14.6111C169.02 14.5114 169.132 14.3869 169.207 14.2374C169.307 14.0879 169.406 13.9135 169.506 13.7142L173.579 3.5498H174.252L177.764 12.3316C178.014 12.9295 178.225 13.4028 178.4 13.7516C178.574 14.1004 178.748 14.362 178.923 14.5364C179.072 14.7107 179.247 14.8228 179.446 14.8727C179.645 14.9225 179.882 14.9474 180.156 14.9474V15.5453H175.074V14.9474C175.622 14.9474 175.996 14.8976 176.195 14.7979C176.419 14.6983 176.531 14.5239 176.531 14.2748C176.531 14.1751 176.519 14.0755 176.494 13.9758C176.494 13.9011 176.481 13.8139 176.456 13.7142C176.432 13.5897 176.394 13.4651 176.344 13.3405C176.295 13.216 176.232 13.0665 176.158 12.8921L175.522 11.2105ZM171.673 10.4257H175.223L173.504 5.82933L171.673 10.4257Z" fill="#151C42"></path><path d="M191.142 15.6948L183.743 5.94143H183.669V12.5932C183.693 13.1163 183.718 13.5274 183.743 13.8263C183.768 14.1253 183.843 14.362 183.968 14.5364C184.067 14.7107 184.217 14.8228 184.416 14.8727C184.615 14.9225 184.889 14.9474 185.238 14.9474V15.5453H181.053V14.9474C181.402 14.9474 181.688 14.9225 181.912 14.8727C182.136 14.7979 182.311 14.6858 182.435 14.5364C182.56 14.3869 182.647 14.1627 182.697 13.8637C182.722 13.5897 182.734 13.2035 182.734 12.7053V6.38987C182.734 5.94144 182.722 5.5802 182.697 5.30616C182.672 5.00721 182.597 4.78299 182.473 4.63351C182.373 4.45912 182.211 4.33456 181.987 4.25982C181.788 4.20999 181.526 4.17263 181.202 4.14771V3.5498H184.266L191.105 12.6305H191.142V6.50197C191.142 5.9788 191.13 5.56774 191.105 5.26879C191.055 4.96984 190.98 4.73317 190.881 4.55878C190.781 4.38439 190.619 4.27227 190.395 4.22245C190.196 4.17262 189.934 4.14771 189.61 4.14771V3.5498H193.796V4.14771C193.447 4.14771 193.16 4.18508 192.936 4.25982C192.712 4.30964 192.538 4.4093 192.413 4.55878C192.288 4.70825 192.201 4.93247 192.151 5.23142C192.102 5.53037 192.077 5.91652 192.077 6.38987V15.6948H191.142Z" fill="#151C42"></path><path d="M195.59 11.8832H196.188C196.263 12.3565 196.4 12.7801 196.599 13.1538C196.798 13.5274 197.047 13.8389 197.346 14.088C197.645 14.362 198.006 14.5613 198.43 14.6859C198.829 14.8354 199.252 14.9101 199.7 14.9101C200.473 14.9101 201.083 14.7357 201.532 14.3869C201.98 14.0132 202.204 13.515 202.204 12.8922C202.204 12.6181 202.167 12.3815 202.092 12.1822C201.992 11.9579 201.843 11.7462 201.644 11.5469C201.419 11.3476 201.133 11.1483 200.784 10.949C200.435 10.7497 199.999 10.5379 199.476 10.3137C198.829 10.0147 198.293 9.7407 197.869 9.49157C197.421 9.21753 197.072 8.94349 196.823 8.66945C196.549 8.39541 196.362 8.09645 196.262 7.77258C196.163 7.47363 196.113 7.11239 196.113 6.68888C196.113 6.21553 196.2 5.77956 196.375 5.38095C196.524 4.98235 196.761 4.63357 197.085 4.33462C197.384 4.03567 197.745 3.799 198.168 3.62461C198.617 3.47513 199.09 3.40039 199.588 3.40039C200.037 3.40039 200.46 3.47513 200.859 3.62461C201.258 3.77409 201.656 3.9983 202.055 4.29725L202.466 3.62461H202.839L202.989 6.72625H202.428C202.179 5.8543 201.818 5.21902 201.345 4.82042C200.871 4.3969 200.298 4.18515 199.626 4.18515C199.003 4.18515 198.505 4.34707 198.131 4.67094C197.757 4.9699 197.57 5.38095 197.57 5.90412C197.57 6.15325 197.608 6.38993 197.683 6.61415C197.757 6.81345 197.894 7.00029 198.094 7.17468C198.293 7.34907 198.542 7.53592 198.841 7.73522C199.14 7.90961 199.514 8.09646 199.962 8.29576C200.709 8.64454 201.345 8.95595 201.868 9.22999C202.366 9.52894 202.777 9.82789 203.101 10.1268C203.4 10.4258 203.612 10.7372 203.736 11.0611C203.861 11.3849 203.923 11.7586 203.923 12.1822C203.923 12.7053 203.811 13.1787 203.587 13.6022C203.388 14.0506 203.101 14.4243 202.727 14.7233C202.354 15.0471 201.905 15.2838 201.382 15.4333C200.859 15.6077 200.286 15.6949 199.663 15.6949C199.065 15.6949 198.53 15.6201 198.056 15.4706C197.583 15.2963 197.11 15.0098 196.636 14.6112L196.188 15.3959H195.814L195.59 11.8832Z" fill="#151C42"></path><path fill-rule="evenodd" clip-rule="evenodd" d="M104.409 23.6919C104.409 24.539 104.16 25.2365 103.662 25.7846C103.164 26.3327 102.366 26.7064 101.27 26.9057L104.708 31.0537C104.982 31.3775 105.294 31.6142 105.642 31.7637C105.966 31.9132 106.365 32.0253 106.838 32.1V32.6979H103.849L99.9997 27.8025C99.8752 27.6282 99.7506 27.4911 99.626 27.3915C99.5015 27.2918 99.3769 27.2046 99.2523 27.1299C99.1278 27.0801 98.9783 27.0552 98.8039 27.0552C98.6295 27.0302 98.4302 27.0178 98.206 27.0178V30.2689C98.206 30.6426 98.2184 30.954 98.2434 31.2031C98.2932 31.4523 98.3928 31.6391 98.5423 31.7637C98.6918 31.9132 98.916 32.0004 99.215 32.0253C99.489 32.0751 99.8627 32.1 100.336 32.1V32.6979H94.8428V32.1C95.1916 32.1 95.478 32.0751 95.7023 32.0253C95.9265 31.9754 96.1009 31.8882 96.2254 31.7637C96.35 31.6391 96.4372 31.4647 96.487 31.2405C96.5368 30.9914 96.5617 30.6924 96.5617 30.3437V23.0567C96.5617 22.7079 96.5368 22.4214 96.487 22.1972C96.4621 21.9729 96.3998 21.7986 96.3002 21.674C96.1756 21.5245 96.0137 21.4373 95.8144 21.4124C95.5901 21.3626 95.3161 21.3252 94.9922 21.3003V20.7024H99.8876C101.333 20.7024 102.441 20.964 103.213 21.4871C104.011 22.0103 104.409 22.7452 104.409 23.6919ZM98.206 26.233H99.2897C100.336 26.233 101.108 26.0462 101.607 25.6725C102.105 25.2988 102.354 24.676 102.354 23.804C102.354 22.957 102.155 22.3466 101.756 21.9729C101.357 21.5993 100.735 21.4124 99.8876 21.4124H98.4676C98.2932 21.4124 98.206 21.5121 98.206 21.7114V26.233Z" fill="#151C42"></path><path d="M110.874 26.1209C111.422 26.1209 111.895 26.0836 112.294 26.0088C112.668 25.9341 112.967 25.822 113.191 25.6725C113.415 25.5479 113.577 25.3611 113.677 25.112C113.776 24.8878 113.826 24.6262 113.826 24.3272H114.349V28.5873H113.826C113.826 28.2634 113.776 27.9894 113.677 27.7652C113.577 27.541 113.428 27.3541 113.228 27.2046C113.004 27.0552 112.693 26.9431 112.294 26.8683C111.92 26.7687 111.447 26.7188 110.874 26.7188V30.2689C110.874 30.5928 110.911 30.8668 110.986 31.091C111.061 31.3153 111.21 31.5021 111.435 31.6516C111.634 31.8011 111.895 31.9007 112.219 31.9505C112.543 32.0004 112.954 32.0253 113.452 32.0253C114.001 32.0253 114.474 31.9879 114.872 31.9132C115.246 31.8384 115.558 31.7014 115.807 31.5021C116.081 31.3277 116.293 31.091 116.442 30.7921C116.591 30.4682 116.728 30.0821 116.853 29.6336H117.414L117.189 32.6979H107.511V32.1C107.884 32.1 108.183 32.0751 108.408 32.0253C108.632 31.9754 108.806 31.8882 108.931 31.7637C109.055 31.6391 109.13 31.4647 109.155 31.2405C109.205 30.9914 109.23 30.6924 109.23 30.3437V23.0567C109.23 22.7079 109.205 22.4214 109.155 22.1972C109.13 21.9729 109.068 21.7986 108.968 21.674C108.844 21.5245 108.682 21.4373 108.482 21.4124C108.283 21.3626 108.009 21.3252 107.66 21.3003V20.7024H116.666L116.816 23.4304H116.293C116.218 23.0317 116.106 22.6954 115.956 22.4214C115.832 22.1473 115.645 21.9356 115.396 21.7861C115.147 21.6366 114.835 21.5245 114.461 21.4498C114.088 21.4 113.639 21.375 113.116 21.375H111.136C110.961 21.375 110.874 21.4622 110.874 21.6366V26.1209Z" fill="#151C42"></path><path d="M119.432 29.0358H119.992C120.067 29.5091 120.204 29.9326 120.403 30.3063C120.603 30.68 120.864 30.9914 121.188 31.2406C121.487 31.5146 121.836 31.7139 122.234 31.8385C122.633 31.988 123.069 32.0627 123.542 32.0627C124.315 32.0627 124.925 31.8758 125.373 31.5022C125.822 31.1534 126.046 30.6676 126.046 30.0448C126.046 29.7707 125.996 29.534 125.897 29.3347C125.822 29.1105 125.672 28.8988 125.448 28.6995C125.249 28.5002 124.975 28.3009 124.626 28.1016C124.277 27.9023 123.841 27.6905 123.318 27.4663C122.67 27.1673 122.122 26.8933 121.674 26.6442C121.25 26.3701 120.902 26.0961 120.627 25.822C120.378 25.548 120.204 25.249 120.104 24.9252C119.98 24.6013 119.917 24.2401 119.917 23.8415C119.917 23.3681 120.005 22.9321 120.179 22.5335C120.353 22.11 120.59 21.7612 120.889 21.4872C121.213 21.1883 121.587 20.9516 122.01 20.7772C122.434 20.6277 122.907 20.553 123.43 20.553C123.879 20.553 124.302 20.6277 124.701 20.7772C125.099 20.9018 125.498 21.126 125.897 21.4498L126.308 20.7772H126.644L126.831 23.8788H126.27C126.021 23.0069 125.647 22.3716 125.149 21.973C124.676 21.5495 124.115 21.3377 123.468 21.3377C122.82 21.3377 122.309 21.4997 121.935 21.8235C121.562 22.1225 121.375 22.5336 121.375 23.0567C121.375 23.3058 121.425 23.5301 121.524 23.7294C121.599 23.9536 121.736 24.1529 121.935 24.3273C122.11 24.5017 122.346 24.676 122.645 24.8504C122.944 25.0497 123.318 25.249 123.766 25.4483C124.539 25.7971 125.186 26.1085 125.71 26.3826C126.208 26.6815 126.607 26.9805 126.905 27.2794C127.204 27.5784 127.416 27.8898 127.541 28.2137C127.665 28.5375 127.728 28.9112 127.728 29.3347C127.728 29.833 127.628 30.3063 127.429 30.7548C127.204 31.2032 126.918 31.5769 126.569 31.8758C126.171 32.1997 125.722 32.4364 125.224 32.5859C124.701 32.7603 124.128 32.8475 123.505 32.8475C122.907 32.8475 122.371 32.7727 121.898 32.6232C121.425 32.4488 120.939 32.1623 120.441 31.7637L120.03 32.5485H119.656L119.432 29.0358Z" fill="#151C42"></path><path fill-rule="evenodd" clip-rule="evenodd" d="M139.236 23.6919C139.236 24.2649 139.149 24.7632 138.975 25.1867C138.776 25.6351 138.489 26.0088 138.115 26.3078C137.742 26.6067 137.256 26.831 136.658 26.9804C136.035 27.1548 135.288 27.242 134.416 27.242H133.033V30.2689C133.033 30.6426 133.046 30.954 133.071 31.2031C133.12 31.4523 133.22 31.6391 133.369 31.7637C133.519 31.9132 133.743 32.0004 134.042 32.0253C134.316 32.0751 134.69 32.1 135.163 32.1V32.6979H129.67V32.1C130.019 32.1 130.305 32.0751 130.529 32.0253C130.754 31.9754 130.928 31.8882 131.053 31.7637C131.177 31.6391 131.264 31.4647 131.314 31.2405C131.364 30.9914 131.389 30.6924 131.389 30.3437V23.0567C131.389 22.7079 131.364 22.4214 131.314 22.1972C131.289 21.9729 131.215 21.7986 131.09 21.674C130.99 21.5245 130.841 21.4373 130.642 21.4124C130.417 21.3626 130.143 21.3252 129.819 21.3003V20.7024H134.715C136.16 20.7024 137.268 20.964 138.041 21.4871C138.838 22.0103 139.236 22.7452 139.236 23.6919ZM133.033 26.4572H134.117C135.163 26.4572 135.935 26.258 136.434 25.8594C136.932 25.4607 137.181 24.8005 137.181 23.8788C137.181 23.0068 136.982 22.384 136.583 22.0103C136.185 21.6366 135.562 21.4373 134.715 21.4124H133.295C133.12 21.4124 133.033 21.5121 133.033 21.7114V26.4572Z" fill="#151C42"></path><path fill-rule="evenodd" clip-rule="evenodd" d="M147.458 20.553C148.355 20.553 149.202 20.7149 149.999 21.0388C150.797 21.3626 151.482 21.7986 152.055 22.3467C152.628 22.9197 153.089 23.5799 153.437 24.3273C153.761 25.0996 153.923 25.9217 153.923 26.7936C153.923 27.6407 153.761 28.4254 153.437 29.1479C153.089 29.8953 152.628 30.543 152.055 31.0911C151.457 31.6392 150.772 32.0752 149.999 32.399C149.202 32.698 148.355 32.8475 147.458 32.8475C146.537 32.8475 145.677 32.698 144.88 32.399C144.108 32.0752 143.422 31.6392 142.825 31.0911C142.252 30.543 141.791 29.8953 141.442 29.1479C141.118 28.4254 140.956 27.6407 140.956 26.7936C140.956 25.9217 141.118 25.0996 141.442 24.3273C141.791 23.5799 142.252 22.9197 142.825 22.3467C143.398 21.7986 144.083 21.3626 144.88 21.0388C145.677 20.7149 146.537 20.553 147.458 20.553ZM147.458 31.9879C148.131 31.9879 148.741 31.8759 149.289 31.6516C149.837 31.4025 150.298 31.0537 150.672 30.6053C151.071 30.1569 151.37 29.6212 151.569 28.9984C151.793 28.3507 151.905 27.6282 151.905 26.831C151.905 26.0089 151.793 25.2615 151.569 24.5888C151.37 23.9162 151.083 23.3432 150.709 22.8699C150.311 22.3965 149.837 22.0353 149.289 21.7862C148.741 21.537 148.131 21.4125 147.458 21.4125C146.761 21.4125 146.138 21.537 145.59 21.7862C145.042 22.0353 144.568 22.3965 144.17 22.8699C143.796 23.3432 143.51 23.9162 143.31 24.5888C143.086 25.2615 142.974 26.0089 142.974 26.831C142.974 27.6282 143.086 28.3507 143.31 28.9984C143.51 29.6212 143.796 30.1569 144.17 30.6053C144.568 31.0537 145.042 31.4025 145.59 31.6516C146.138 31.8759 146.761 31.9879 147.458 31.9879Z" fill="#151C42"></path><path d="M165.806 32.8474L158.407 23.094H158.37V29.7457C158.37 30.2689 158.382 30.68 158.407 30.9789C158.432 31.2779 158.507 31.5145 158.632 31.6889C158.731 31.8633 158.881 31.9754 159.08 32.0253C159.279 32.0751 159.553 32.1 159.902 32.1V32.6979H155.717V32.1C156.066 32.1 156.352 32.0751 156.576 32.0253C156.801 31.9505 156.975 31.8384 157.099 31.6889C157.224 31.5395 157.311 31.3153 157.361 31.0163C157.411 30.7423 157.436 30.3561 157.436 29.8579V23.5425C157.436 23.094 157.411 22.7328 157.361 22.4588C157.336 22.1598 157.261 21.9356 157.137 21.7861C157.037 21.6117 156.875 21.4871 156.651 21.4124C156.452 21.3626 156.19 21.3252 155.866 21.3003V20.7024H158.931L165.769 29.7831H165.806V23.6546C165.806 23.1314 165.794 22.7203 165.769 22.4214C165.719 22.1224 165.645 21.8858 165.545 21.7114C165.445 21.537 165.296 21.4249 165.096 21.375C164.872 21.3252 164.598 21.3003 164.274 21.3003V20.7024H168.46V21.3003C168.111 21.3003 167.824 21.3377 167.6 21.4124C167.376 21.4622 167.202 21.5619 167.077 21.7114C166.952 21.8608 166.865 22.0851 166.815 22.384C166.766 22.683 166.741 23.0691 166.741 23.5425V32.8474H165.806Z" fill="#151C42"></path><path d="M170.254 29.0358H170.852C170.927 29.5091 171.064 29.9326 171.263 30.3063C171.462 30.68 171.711 30.9914 172.01 31.2406C172.309 31.5146 172.67 31.7139 173.094 31.8385C173.493 31.988 173.916 32.0627 174.365 32.0627C175.137 32.0627 175.747 31.8758 176.196 31.5022C176.644 31.1534 176.868 30.6676 176.868 30.0448C176.868 29.7707 176.831 29.534 176.756 29.3347C176.657 29.1105 176.507 28.8988 176.308 28.6995C176.084 28.5002 175.797 28.3009 175.448 28.1016C175.099 27.9023 174.663 27.6905 174.14 27.4663C173.493 27.1673 172.957 26.8933 172.533 26.6442C172.085 26.3701 171.736 26.0961 171.487 25.822C171.213 25.548 171.026 25.249 170.927 24.9252C170.827 24.6013 170.777 24.2401 170.777 23.8415C170.777 23.3681 170.864 22.9321 171.039 22.5335C171.188 22.11 171.425 21.7612 171.749 21.4872C172.048 21.1883 172.421 20.9516 172.87 20.7772C173.293 20.6277 173.754 20.553 174.252 20.553C174.701 20.553 175.124 20.6277 175.523 20.7772C175.922 20.9018 176.32 21.126 176.719 21.4498L177.13 20.7772H177.504L177.653 23.8788H177.092C176.843 23.0069 176.482 22.3716 176.009 21.973C175.535 21.5495 174.962 21.3377 174.29 21.3377C173.667 21.3377 173.169 21.4997 172.795 21.8235C172.421 22.1225 172.234 22.5336 172.234 23.0567C172.234 23.3058 172.272 23.5301 172.347 23.7294C172.446 23.9536 172.583 24.1529 172.758 24.3273C172.957 24.5017 173.206 24.676 173.505 24.8504C173.804 25.0497 174.178 25.249 174.626 25.4483C175.398 25.7971 176.034 26.1085 176.532 26.3826C177.03 26.6815 177.441 26.9805 177.765 27.2794C178.064 27.5784 178.276 27.8898 178.4 28.2137C178.525 28.5375 178.587 28.9112 178.587 29.3347C178.587 29.833 178.475 30.3063 178.251 30.7548C178.052 31.2032 177.765 31.5769 177.391 31.8758C177.018 32.1997 176.569 32.4364 176.046 32.5859C175.523 32.7603 174.95 32.8475 174.327 32.8475C173.729 32.8475 173.194 32.7727 172.72 32.6232C172.247 32.4488 171.774 32.1623 171.3 31.7637L170.852 32.5485H170.515L170.254 29.0358Z" fill="#151C42"></path><path d="M183.855 29.7457C183.855 30.2689 183.88 30.68 183.93 30.9789C183.955 31.2779 184.03 31.5145 184.154 31.6889C184.279 31.8633 184.453 31.9754 184.678 32.0253C184.902 32.0751 185.201 32.1 185.574 32.1V32.6979H180.492V32.1C180.866 32.1 181.165 32.0751 181.389 32.0253C181.613 31.9505 181.788 31.8384 181.912 31.6889C182.037 31.5395 182.124 31.3153 182.174 31.0163C182.199 30.7423 182.211 30.3561 182.211 29.8579V23.5425C182.211 23.094 182.199 22.7328 182.174 22.4588C182.124 22.1598 182.049 21.9356 181.95 21.7861C181.85 21.6117 181.688 21.4871 181.464 21.4124C181.264 21.3626 181.003 21.3252 180.679 21.3003V20.7024H185.388V21.3003C185.064 21.3003 184.802 21.3377 184.603 21.4124C184.403 21.4871 184.242 21.6117 184.117 21.7861C184.017 21.9605 183.955 22.1972 183.93 22.4961C183.88 22.7951 183.855 23.1812 183.855 23.6546V29.7457Z" fill="#151C42"></path><path fill-rule="evenodd" clip-rule="evenodd" d="M187.257 32.6979V32.1C187.655 32.1 187.979 32.0751 188.228 32.0253C188.478 31.9754 188.664 31.8882 188.789 31.7637C188.914 31.6391 189.001 31.4647 189.051 31.2405C189.1 30.9914 189.125 30.6924 189.125 30.3437V23.0567C189.125 22.7079 189.113 22.4214 189.088 22.1972C189.038 21.9729 188.963 21.7986 188.864 21.674C188.739 21.5245 188.577 21.4373 188.378 21.4124C188.179 21.3626 187.905 21.3252 187.556 21.3003V20.7024H192.227C193.622 20.7024 194.718 20.9515 195.515 21.4498C196.288 21.948 196.674 22.6456 196.674 23.5425C196.674 24.24 196.462 24.8006 196.039 25.2241C195.59 25.6725 194.905 26.0337 193.983 26.3078V26.3825C194.307 26.4074 194.581 26.4448 194.805 26.4946C195.055 26.5195 195.266 26.5694 195.441 26.6441C195.64 26.6939 195.814 26.7562 195.964 26.8309C196.138 26.9306 196.3 27.0303 196.45 27.1299C197.371 27.7776 197.832 28.5998 197.832 29.5963C197.832 30.1444 197.683 30.6551 197.384 31.1284C197.085 31.6017 196.661 31.9754 196.113 32.2495C195.914 32.3242 195.727 32.399 195.553 32.4737C195.354 32.5235 195.129 32.5609 194.88 32.5858C194.631 32.6356 194.345 32.673 194.021 32.6979C193.697 32.6979 193.311 32.6979 192.862 32.6979H187.257ZM191.629 26.0088C191.953 26.0088 192.227 25.9964 192.451 25.9715C192.675 25.9715 192.862 25.959 193.012 25.9341C193.161 25.9092 193.298 25.8718 193.423 25.822C193.547 25.7722 193.672 25.7099 193.796 25.6351C194.12 25.4109 194.357 25.1618 194.506 24.8877C194.656 24.5888 194.731 24.2026 194.731 23.7293C194.731 22.9072 194.531 22.3217 194.133 21.9729C193.734 21.5993 193.099 21.4124 192.227 21.4124H191.031C190.857 21.4124 190.77 21.5121 190.77 21.7114V26.0088H191.629ZM192.9 32.0253C194.793 32.0253 195.74 31.2281 195.74 29.6336C195.74 28.4378 195.254 27.6157 194.282 27.1673C194.108 27.0925 193.946 27.0303 193.796 26.9804C193.647 26.9306 193.473 26.8932 193.273 26.8683C193.049 26.8434 192.8 26.8185 192.526 26.7936C192.227 26.7936 191.866 26.7936 191.442 26.7936H190.77V30.2689C190.77 30.8917 190.931 31.3402 191.255 31.6142C191.579 31.8882 192.127 32.0253 192.9 32.0253Z" fill="#151C42"></path><path d="M209.678 32.6979H199.626V32.1C199.975 32.1 200.261 32.0751 200.485 32.0253C200.71 31.9754 200.884 31.8882 201.009 31.7637C201.133 31.6391 201.22 31.4647 201.27 31.2405C201.32 30.9914 201.345 30.6924 201.345 30.3437V23.0567C201.345 22.7079 201.32 22.4214 201.27 22.1972C201.245 21.9729 201.171 21.7986 201.046 21.674C200.946 21.5245 200.797 21.4373 200.598 21.4124C200.373 21.3626 200.099 21.3252 199.775 21.3003V20.7024H204.521V21.3003C204.173 21.3003 203.899 21.3252 203.699 21.375C203.5 21.4249 203.35 21.5245 203.251 21.674C203.151 21.7986 203.076 21.9854 203.027 22.2345C203.002 22.4587 202.989 22.7702 202.989 23.1688V29.8952C202.989 30.3437 203.027 30.7049 203.101 30.9789C203.201 31.253 203.35 31.4647 203.55 31.6142C203.774 31.7637 204.06 31.8633 204.409 31.9132C204.758 31.963 205.206 31.9879 205.755 31.9879C206.352 31.9879 206.851 31.963 207.249 31.9132C207.648 31.8384 207.984 31.7139 208.258 31.5395C208.532 31.3651 208.757 31.1284 208.931 30.8295C209.08 30.5305 209.217 30.1319 209.342 29.6336H209.94L209.678 32.6979Z" fill="#151C42"></path><path d="M214.685 26.1209C215.258 26.1209 215.732 26.0836 216.105 26.0088C216.479 25.9341 216.778 25.822 217.002 25.6725C217.226 25.5479 217.388 25.3611 217.488 25.112C217.588 24.8878 217.637 24.6262 217.637 24.3272H218.198V28.5873H217.637C217.637 28.2634 217.6 27.9894 217.525 27.7652C217.426 27.541 217.264 27.3541 217.039 27.2046C216.815 27.0552 216.516 26.9431 216.143 26.8683C215.769 26.7687 215.283 26.7188 214.685 26.7188V30.2689C214.685 30.5928 214.735 30.8668 214.835 31.091C214.909 31.3153 215.046 31.5021 215.246 31.6516C215.445 31.8011 215.719 31.9007 216.068 31.9505C216.392 32.0004 216.79 32.0253 217.264 32.0253C217.837 32.0253 218.31 31.9879 218.684 31.9132C219.082 31.8384 219.406 31.7014 219.655 31.5021C219.904 31.3277 220.116 31.091 220.291 30.7921C220.44 30.4682 220.565 30.0821 220.664 29.6336H221.262L221.038 32.6979H211.359V32.1C211.708 32.1 211.995 32.0751 212.219 32.0253C212.443 31.9754 212.617 31.8882 212.742 31.7637C212.867 31.6391 212.954 31.4647 213.004 31.2405C213.029 30.9914 213.041 30.6924 213.041 30.3437V23.0567C213.041 22.7079 213.029 22.4214 213.004 22.1972C212.979 21.9729 212.904 21.7986 212.779 21.674C212.68 21.5245 212.518 21.4373 212.294 21.4124C212.094 21.3626 211.833 21.3252 211.509 21.3003V20.7024H220.515L220.664 23.4304H220.104C220.054 23.0317 219.954 22.6954 219.805 22.4214C219.655 22.1473 219.456 21.9356 219.207 21.7861C218.983 21.6366 218.684 21.5245 218.31 21.4498C217.936 21.4 217.475 21.375 216.927 21.375H214.947C214.772 21.375 214.685 21.4622 214.685 21.6366V26.1209Z" fill="#151C42"></path><path d="M98.206 46.8981C98.206 47.4213 98.2184 47.8323 98.2434 48.1313C98.2932 48.4302 98.3804 48.6669 98.505 48.8413C98.6295 49.0157 98.7914 49.1278 98.9907 49.1776C99.215 49.2274 99.5139 49.2523 99.8876 49.2523V49.8503H94.8428V49.2523C95.1916 49.2523 95.478 49.215 95.7023 49.1402C95.9265 49.0904 96.1009 48.9908 96.2254 48.8413C96.35 48.6918 96.4372 48.4676 96.487 48.1687C96.5368 47.8946 96.5617 47.5084 96.5617 47.0102V40.6948C96.5617 40.2464 96.5368 39.8851 96.487 39.6111C96.4621 39.3121 96.3998 39.0879 96.3002 38.9385C96.1756 38.7641 96.0137 38.6395 95.8144 38.5648C95.5901 38.5149 95.3161 38.4776 94.9922 38.4527V37.8547H99.7381V38.4527C99.4143 38.4527 99.1402 38.49 98.916 38.5648C98.7167 38.6395 98.5672 38.7641 98.4676 38.9385C98.3679 39.1128 98.2932 39.3495 98.2434 39.6485C98.2184 39.9474 98.206 40.3336 98.206 40.8069V46.8981Z" fill="#151C42"></path><path d="M112.593 49.9997L105.194 40.2464H105.119V46.8981C105.119 47.4213 105.144 47.8323 105.194 48.1313C105.219 48.4302 105.293 48.6669 105.418 48.8413C105.518 49.0157 105.667 49.1278 105.866 49.1776C106.066 49.2274 106.34 49.2523 106.689 49.2523V49.8503H102.466V49.2523C102.84 49.2523 103.138 49.215 103.363 49.1402C103.587 49.0904 103.761 48.9908 103.886 48.8413C104.01 48.6918 104.098 48.4676 104.147 48.1687C104.172 47.8946 104.185 47.5084 104.185 47.0102V40.6948C104.185 40.2464 104.172 39.8851 104.147 39.6111C104.098 39.3121 104.023 39.0879 103.923 38.9385C103.824 38.7641 103.662 38.6395 103.437 38.5648C103.238 38.5149 102.977 38.4776 102.653 38.4527V37.8547H105.717L112.518 46.9355H112.593V40.8069C112.593 40.2837 112.58 39.8727 112.556 39.5737C112.506 39.2748 112.431 39.0381 112.331 38.8637C112.207 38.6893 112.045 38.5772 111.845 38.5274C111.646 38.4776 111.385 38.4527 111.061 38.4527V37.8547H115.246V38.4527C114.872 38.4527 114.573 38.4776 114.349 38.5274C114.125 38.6021 113.951 38.7142 113.826 38.8637C113.701 39.0132 113.627 39.2374 113.602 39.5364C113.552 39.8353 113.527 40.2215 113.527 40.6948V49.9997H112.593Z" fill="#151C42"></path><path d="M127.84 49.9997L120.403 40.2464H120.366V46.8981C120.366 47.4213 120.379 47.8323 120.403 48.1313C120.453 48.4302 120.528 48.6669 120.628 48.8413C120.752 49.0157 120.914 49.1278 121.113 49.1776C121.313 49.2274 121.574 49.2523 121.898 49.2523V49.8503H117.713V49.2523C118.062 49.2523 118.348 49.215 118.572 49.1402C118.797 49.0904 118.971 48.9908 119.096 48.8413C119.22 48.6918 119.307 48.4676 119.357 48.1687C119.407 47.8946 119.432 47.5084 119.432 47.0102V40.6948C119.432 40.2464 119.407 39.8851 119.357 39.6111C119.332 39.3121 119.257 39.0879 119.133 38.9385C119.033 38.7641 118.884 38.6395 118.684 38.5648C118.46 38.5149 118.186 38.4776 117.862 38.4527V37.8547H120.964L127.765 46.9355H127.84V40.8069C127.84 40.2837 127.815 39.8727 127.765 39.5737C127.74 39.2748 127.666 39.0381 127.541 38.8637C127.441 38.6893 127.292 38.5772 127.093 38.5274C126.893 38.4776 126.619 38.4527 126.27 38.4527V37.8547H130.493V38.4527C130.119 38.4527 129.821 38.4776 129.596 38.5274C129.372 38.6021 129.198 38.7142 129.073 38.8637C128.949 39.0132 128.861 39.2374 128.812 39.5364C128.787 39.8353 128.774 40.2215 128.774 40.6948V49.9997H127.84Z" fill="#151C42"></path><path fill-rule="evenodd" clip-rule="evenodd" d="M139.424 37.7053C140.321 37.7053 141.168 37.8673 141.965 38.1911C142.762 38.515 143.448 38.951 144.021 39.499C144.594 40.072 145.054 40.7322 145.403 41.4796C145.727 42.2519 145.889 43.074 145.889 43.946C145.889 44.793 145.727 45.5778 145.403 46.3002C145.054 47.0476 144.594 47.6953 144.021 48.2434C143.423 48.7915 142.738 49.2275 141.965 49.5513C141.168 49.8503 140.321 49.9998 139.424 49.9998C138.502 49.9998 137.655 49.8503 136.883 49.5513C136.086 49.2275 135.401 48.7915 134.828 48.2434C134.23 47.6953 133.769 47.0476 133.445 46.3002C133.096 45.5778 132.922 44.793 132.922 43.946C132.922 43.074 133.084 42.2519 133.408 41.4796C133.756 40.7322 134.217 40.072 134.79 39.499C135.363 38.951 136.048 38.515 136.846 38.1911C137.643 37.8673 138.502 37.7053 139.424 37.7053ZM139.424 49.1403C140.097 49.1403 140.707 49.0282 141.255 48.804C141.803 48.5548 142.277 48.2061 142.675 47.7576C143.049 47.3092 143.348 46.7736 143.572 46.1508C143.771 45.503 143.871 44.7806 143.871 43.9833C143.871 43.1612 143.771 42.4138 143.572 41.7412C143.348 41.0685 143.049 40.4955 142.675 40.0222C142.277 39.5489 141.803 39.1876 141.255 38.9385C140.707 38.6894 140.097 38.5648 139.424 38.5648C138.727 38.5648 138.104 38.6894 137.556 38.9385C137.008 39.1876 136.534 39.5489 136.136 40.0222C135.762 40.4955 135.475 41.0685 135.276 41.7412C135.052 42.4138 134.94 43.1612 134.94 43.9833C134.94 44.7806 135.052 45.503 135.276 46.1508C135.475 46.7736 135.762 47.3092 136.136 47.7576C136.534 48.2061 137.008 48.5548 137.556 48.804C138.104 49.0282 138.727 49.1403 139.424 49.1403Z" fill="#151C42"></path><path d="M154.11 47.4586L156.875 40.6948C157.025 40.3211 157.124 40.0222 157.174 39.7979C157.249 39.5737 157.286 39.3744 157.286 39.2C157.286 38.926 157.199 38.7267 157.025 38.6021C156.85 38.5025 156.526 38.4527 156.053 38.4527V37.8547H159.865V38.4527C159.616 38.4776 159.404 38.5149 159.229 38.5648C159.055 38.6146 158.906 38.6893 158.781 38.789C158.656 38.8886 158.544 39.0132 158.445 39.1627C158.345 39.3121 158.245 39.499 158.146 39.7232L153.923 49.9997H153.362L149.364 40.2837C149.214 39.9848 149.077 39.7232 148.953 39.499C148.828 39.2499 148.691 39.063 148.542 38.9385C148.367 38.789 148.193 38.6769 148.019 38.6021C147.819 38.5274 147.583 38.4776 147.309 38.4527V37.8547H152.391V38.4527C152.092 38.4527 151.855 38.4651 151.681 38.49C151.506 38.5149 151.357 38.5523 151.232 38.6021C151.133 38.6769 151.058 38.7516 151.008 38.8263C150.983 38.9011 150.971 39.0007 150.971 39.1253C150.971 39.2499 150.996 39.4118 151.046 39.6111C151.095 39.8104 151.195 40.0969 151.344 40.4706L154.11 47.4586Z" fill="#151C42"></path><path fill-rule="evenodd" clip-rule="evenodd" d="M167.302 45.5154H163.154C162.954 45.9389 162.792 46.3126 162.668 46.6365C162.568 46.9604 162.468 47.2469 162.369 47.496C162.294 47.7202 162.244 47.9195 162.219 48.0939C162.194 48.2683 162.182 48.4053 162.182 48.505C162.182 48.779 162.269 48.9783 162.444 49.1029C162.643 49.2025 162.954 49.2523 163.378 49.2523V49.8503H159.604V49.2523C159.828 49.2274 160.027 49.1901 160.201 49.1402C160.376 49.0904 160.525 49.0157 160.65 48.916C160.799 48.8164 160.924 48.6918 161.024 48.5423C161.123 48.3929 161.21 48.206 161.285 47.9818L165.358 37.8547H166.031L169.581 46.6365C169.805 47.2095 170.005 47.6704 170.179 48.0192C170.353 48.3679 170.528 48.642 170.702 48.8413C170.877 49.0157 171.051 49.1278 171.225 49.1776C171.425 49.2274 171.661 49.2523 171.935 49.2523V49.8503H166.853V49.2523C167.401 49.2523 167.775 49.2025 167.974 49.1029C168.198 48.9783 168.311 48.8039 168.311 48.5797C168.311 48.4801 168.298 48.3804 168.273 48.2808C168.273 48.206 168.261 48.1064 168.236 47.9818C168.211 47.8822 168.174 47.77 168.124 47.6455C168.074 47.5209 168.012 47.3714 167.937 47.197L167.302 45.5154ZM163.453 44.7307H167.003L165.284 40.1343L163.453 44.7307Z" fill="#151C42"></path><path d="M184.005 40.8443H183.369C183.345 40.3958 183.27 40.0222 183.145 39.7232C183.046 39.3993 182.884 39.1502 182.659 38.9758C182.46 38.8263 182.199 38.7142 181.875 38.6395C181.551 38.5648 181.165 38.5274 180.716 38.5274C180.318 38.5274 180.006 38.5274 179.782 38.5274C179.558 38.5523 179.383 38.5897 179.259 38.6395C179.134 38.6644 179.047 38.7142 178.997 38.789C178.972 38.8388 178.96 38.9135 178.96 39.0132V47.3465C178.96 47.6704 178.985 47.9569 179.035 48.206C179.06 48.4302 179.147 48.6295 179.296 48.8039C179.446 48.9534 179.645 49.0655 179.894 49.1402C180.168 49.215 180.529 49.2523 180.978 49.2523V49.8503H175.074V49.2523C175.497 49.2523 175.846 49.215 176.12 49.1402C176.394 49.0655 176.606 48.9534 176.755 48.8039C176.88 48.6295 176.967 48.4302 177.017 48.206C177.067 47.9569 177.091 47.6704 177.091 47.3465V39.0132C177.091 38.9135 177.079 38.8388 177.054 38.789C177.004 38.7142 176.93 38.6644 176.83 38.6395C176.705 38.5897 176.543 38.5523 176.344 38.5274C176.145 38.5274 175.883 38.5274 175.559 38.5274C175.161 38.5274 174.787 38.5398 174.438 38.5648C174.089 38.5897 173.79 38.6769 173.541 38.8263C173.267 38.9758 173.056 39.2125 172.906 39.5364C172.757 39.8353 172.682 40.2713 172.682 40.8443H172.084V37.8547H183.855L184.005 40.8443Z" fill="#151C42"></path><path d="M189.498 46.8981C189.498 47.4213 189.523 47.8323 189.573 48.1313C189.598 48.4302 189.672 48.6669 189.797 48.8413C189.922 49.0157 190.096 49.1278 190.32 49.1776C190.544 49.2274 190.843 49.2523 191.217 49.2523V49.8503H186.135V49.2523C186.508 49.2523 186.807 49.215 187.032 49.1402C187.256 49.0904 187.43 48.9908 187.555 48.8413C187.679 48.6918 187.767 48.4676 187.816 48.1687C187.841 47.8946 187.854 47.5084 187.854 47.0102V40.6948C187.854 40.2464 187.841 39.8851 187.816 39.6111C187.767 39.3121 187.692 39.0879 187.592 38.9385C187.493 38.7641 187.331 38.6395 187.106 38.5648C186.907 38.5149 186.645 38.4776 186.322 38.4527V37.8547H191.03V38.4527C190.706 38.4527 190.445 38.49 190.245 38.5648C190.046 38.6395 189.884 38.7641 189.76 38.9385C189.66 39.1128 189.598 39.3495 189.573 39.6485C189.523 39.9474 189.498 40.3336 189.498 40.8069V46.8981Z" fill="#151C42"></path><path fill-rule="evenodd" clip-rule="evenodd" d="M200.261 37.7053C201.158 37.7053 202.005 37.8673 202.802 38.1911C203.599 38.515 204.284 38.951 204.857 39.499C205.43 40.072 205.891 40.7322 206.24 41.4796C206.564 42.2519 206.726 43.074 206.726 43.946C206.726 44.793 206.564 45.5778 206.24 46.3002C205.891 47.0476 205.43 47.6953 204.857 48.2434C204.26 48.7915 203.574 49.2275 202.802 49.5513C202.005 49.8503 201.158 49.9998 200.261 49.9998C199.339 49.9998 198.492 49.8503 197.72 49.5513C196.923 49.2275 196.225 48.7915 195.627 48.2434C195.054 47.6953 194.606 47.0476 194.282 46.3002C193.933 45.5778 193.759 44.793 193.759 43.946C193.759 43.074 193.921 42.2519 194.245 41.4796C194.593 40.7322 195.054 40.072 195.627 39.499C196.2 38.951 196.885 38.515 197.683 38.1911C198.48 37.8673 199.339 37.7053 200.261 37.7053ZM200.261 49.1403C200.934 49.1403 201.544 49.0282 202.092 48.804C202.64 48.5548 203.114 48.2061 203.512 47.7576C203.886 47.3092 204.185 46.7736 204.409 46.1508C204.608 45.503 204.708 44.7806 204.708 43.9833C204.708 43.1612 204.608 42.4138 204.409 41.7412C204.185 41.0685 203.886 40.4955 203.512 40.0222C203.114 39.5489 202.64 39.1876 202.092 38.9385C201.544 38.6894 200.934 38.5648 200.261 38.5648C199.563 38.5648 198.941 38.6894 198.393 38.9385C197.844 39.1876 197.371 39.5489 196.973 40.0222C196.599 40.4955 196.312 41.0685 196.113 41.7412C195.889 42.4138 195.777 43.1612 195.777 43.9833C195.777 44.7806 195.889 45.503 196.113 46.1508C196.312 46.7736 196.599 47.3092 196.973 47.7576C197.371 48.2061 197.844 48.5548 198.393 48.804C198.941 49.0282 199.563 49.1403 200.261 49.1403Z" fill="#151C42"></path><path d="M219.393 49.9997L211.994 40.2464H211.957V46.8981C211.932 47.4213 211.944 47.8323 211.994 48.1313C212.019 48.4302 212.094 48.6669 212.219 48.8413C212.318 49.0157 212.468 49.1278 212.667 49.1776C212.866 49.2274 213.14 49.2523 213.489 49.2523V49.8503H209.304V49.2523C209.652 49.2523 209.939 49.215 210.163 49.1402C210.387 49.0904 210.562 48.9908 210.686 48.8413C210.811 48.6918 210.898 48.4676 210.948 48.1687C210.973 47.8946 210.985 47.5084 210.985 47.0102V40.6948C210.985 40.2464 210.973 39.8851 210.948 39.6111C210.923 39.3121 210.848 39.0879 210.724 38.9385C210.624 38.7641 210.462 38.6395 210.238 38.5648C210.039 38.5149 209.777 38.4776 209.453 38.4527V37.8547H212.517L219.356 46.9355H219.393V40.8069C219.393 40.2837 219.381 39.8727 219.356 39.5737C219.306 39.2748 219.231 39.0381 219.132 38.8637C219.032 38.6893 218.883 38.5772 218.683 38.5274C218.459 38.4776 218.185 38.4527 217.861 38.4527V37.8547H222.047V38.4527C221.698 38.4527 221.411 38.4776 221.187 38.5274C220.963 38.6021 220.789 38.7142 220.664 38.8637C220.539 39.0132 220.452 39.2374 220.402 39.5364C220.353 39.8353 220.328 40.2215 220.328 40.6948V49.9997H219.393Z" fill="#151C42"></path><path d="M208.856 14.6485C208.657 15.4955 208.445 16.1806 208.221 16.7038C207.997 17.2519 207.76 17.6754 207.511 17.9744C207.262 18.2982 207 18.51 206.726 18.6096C206.427 18.7342 206.103 18.7965 205.754 18.7965C205.406 18.7965 205.119 18.7093 204.895 18.5349C204.671 18.3356 204.559 18.1114 204.559 17.8623C204.559 17.638 204.608 17.4636 204.708 17.3391C204.833 17.2394 204.982 17.1896 205.157 17.1896C205.331 17.1896 205.455 17.227 205.53 17.3017C205.605 17.4014 205.655 17.501 205.68 17.6007C205.729 17.7252 205.792 17.8249 205.867 17.8996C205.916 17.9993 206.028 18.0491 206.203 18.0491C206.377 18.0491 206.552 17.9495 206.726 17.7501C206.875 17.5508 206.988 17.2893 207.062 16.9654L208.893 9.93999H207.698L207.847 9.37945H209.043C209.217 8.63206 209.417 7.99678 209.641 7.47362C209.84 6.95045 210.064 6.51447 210.313 6.16569C210.563 5.84183 210.837 5.5927 211.136 5.41831C211.41 5.26883 211.709 5.19409 212.032 5.19409C212.531 5.19409 212.942 5.29375 213.266 5.49305C213.565 5.71727 213.714 5.97884 213.714 6.2778C213.714 6.4771 213.664 6.63904 213.565 6.7636C213.465 6.88817 213.315 6.95045 213.116 6.95045C212.967 6.95045 212.842 6.92553 212.742 6.87571C212.668 6.82588 212.605 6.75114 212.556 6.65149C212.506 6.55184 212.468 6.45219 212.444 6.35254C212.419 6.25289 212.394 6.16569 212.369 6.09095C212.344 5.9913 212.294 5.91657 212.219 5.86674C212.145 5.79201 212.045 5.75463 211.92 5.75463C211.746 5.75463 211.584 5.84183 211.435 6.01622C211.26 6.21552 211.098 6.46465 210.949 6.7636C210.799 7.08747 210.662 7.47362 210.538 7.92205C210.413 8.37048 210.289 8.85628 210.164 9.37945H211.435L211.248 9.93999H210.052L208.856 14.6485Z" fill="#151C42"></path><path fill-rule="evenodd" clip-rule="evenodd" d="M213.078 15.6948C212.804 15.6948 212.543 15.6325 212.294 15.5079C212.045 15.4083 211.833 15.2464 211.658 15.0221C211.484 14.7979 211.335 14.5363 211.21 14.2374C211.11 13.9135 211.061 13.5523 211.061 13.1537C211.061 12.6305 211.16 12.1073 211.359 11.5842C211.559 11.061 211.833 10.5877 212.182 10.1641C212.505 9.76554 212.879 9.44167 213.303 9.19254C213.751 8.94341 214.2 8.81885 214.648 8.81885C214.947 8.81885 215.221 8.88113 215.47 9.00569C215.719 9.10534 215.931 9.25481 216.105 9.45412C216.305 9.67833 216.454 9.93992 216.554 10.2389C216.653 10.5378 216.703 10.8617 216.703 11.2105C216.703 11.7336 216.604 12.2693 216.404 12.8173C216.18 13.3405 215.906 13.8139 215.582 14.2374C215.233 14.6609 214.847 15.0097 214.424 15.2837C213.975 15.5578 213.527 15.6948 213.078 15.6948ZM213.153 15.0595C213.452 15.0595 213.739 14.91 214.013 14.6111C214.287 14.3121 214.536 13.9509 214.76 13.5274C214.984 13.0789 215.159 12.5931 215.283 12.07C215.433 11.5468 215.507 11.0485 215.507 10.5752C215.507 10.1268 215.433 9.81535 215.283 9.64096C215.134 9.49149 214.922 9.41676 214.648 9.41676C214.449 9.41676 214.262 9.47904 214.087 9.6036C213.888 9.72817 213.714 9.90255 213.564 10.1268C213.39 10.351 213.228 10.6126 213.078 10.9115C212.929 11.1856 212.804 11.4845 212.705 11.8084C212.605 12.1323 212.518 12.4686 212.443 12.8173C212.393 13.1661 212.368 13.49 212.368 13.7889C212.368 14.2623 212.443 14.5862 212.593 14.7606C212.742 14.9599 212.929 15.0595 213.153 15.0595Z" fill="#151C42"></path><path d="M217.227 10.6874C217.326 10.4631 217.463 10.2514 217.638 10.0521C217.837 9.82787 218.049 9.62856 218.273 9.45417C218.497 9.25487 218.721 9.1054 218.946 9.00575C219.17 8.88118 219.357 8.8189 219.506 8.8189C219.705 8.8189 219.855 8.89364 219.955 9.04312C220.054 9.1926 220.104 9.42927 220.104 9.75313C220.104 9.90261 220.092 10.0396 220.067 10.1642C220.067 10.2888 220.042 10.4258 219.992 10.5752L220.029 10.6126C220.129 10.3884 220.278 10.1517 220.478 9.90261C220.652 9.67839 220.851 9.47909 221.076 9.3047C221.275 9.13031 221.487 8.98084 221.711 8.85627C221.935 8.75662 222.134 8.70679 222.309 8.70679C222.558 8.70679 222.77 8.78153 222.944 8.931C223.094 9.08048 223.168 9.26733 223.168 9.49154C223.168 9.71576 223.106 9.89015 222.981 10.0147C222.832 10.1642 222.645 10.2389 222.421 10.2389C222.296 10.2389 222.197 10.214 222.122 10.1642C222.047 10.1144 221.972 10.0645 221.898 10.0147C221.848 9.96488 221.798 9.91506 221.748 9.86523C221.698 9.81541 221.636 9.7905 221.561 9.7905C221.412 9.7905 221.225 9.89015 221.001 10.0895C220.802 10.3137 220.59 10.6002 220.366 10.9489C220.141 11.3226 219.917 11.7586 219.693 12.2569C219.469 12.7302 219.269 13.2534 219.095 13.8264L218.534 15.5454H217.376L218.198 12.9669C218.348 12.4686 218.472 12.0576 218.572 11.7337C218.671 11.4098 218.759 11.1358 218.833 10.9116C218.883 10.6874 218.921 10.513 218.946 10.3884C218.97 10.2638 218.983 10.1517 218.983 10.0521C218.983 9.87769 218.921 9.7905 218.796 9.7905C218.696 9.7905 218.597 9.82787 218.497 9.90261C218.373 9.95243 218.248 10.0272 218.123 10.1268C217.999 10.2265 217.887 10.3386 217.787 10.4631C217.687 10.5877 217.613 10.7123 217.563 10.8368L217.227 10.6874Z" fill="#151C42"></path><path d="M14.4625 9.45441L17.5267 7.81016L20.591 9.45441L19.9931 6.01645L22.4595 3.62482L19.0589 3.10164L17.5267 0L15.9946 3.10164L12.5566 3.62482L15.0604 6.01645L14.4625 9.45441Z" fill="#151C42"></path><path d="M4.93274 0L3.4006 3.10164L0 3.62482L2.46637 6.01645L1.90583 9.45441L4.93274 7.81016L7.99701 9.45441L7.43648 6.01645L9.90284 3.62482L6.46487 3.10164L4.93274 0Z" fill="#151C42"></path><path d="M17.5267 18.8341L20.591 20.441L19.9931 17.0404L22.4595 14.6114L19.0589 14.1256L17.5267 11.0239L15.9946 14.1256L12.5566 14.6114L15.0604 17.0404L14.4625 20.441L17.5267 18.8341Z" fill="#151C42"></path><path d="M6.46487 14.1256L4.93274 11.0239L3.4006 14.1256L0 14.6114L2.46637 17.0404L1.90583 20.441L4.93274 18.8341L7.99701 20.441L7.43648 17.0404L9.90284 14.6114L6.46487 14.1256Z" fill="#151C42"></path><path d="M18.6853 29.3348C19.6943 28.8864 20.4043 27.8774 20.4043 26.719C20.4043 25.1121 19.0963 23.8416 17.5268 23.8416C15.92 23.8416 14.6494 25.1121 14.6494 26.719C14.6494 27.8774 15.3221 28.8864 16.331 29.3348V38.7145H82.8109V36.3602H18.6853V29.3348Z" fill="#151C42"></path><path d="M32.7357 14.5366C32.2499 13.5276 31.2783 12.855 30.0825 12.855C28.513 12.855 27.2051 14.1255 27.2051 15.7324C27.2051 17.3019 28.513 18.6098 30.0825 18.6098C31.2783 18.6098 32.2499 17.8998 32.7357 16.8909H82.8105V14.5366H32.7357Z" fill="#151C42"></path><path d="M30.0825 23.8416C28.513 23.8416 27.2051 25.1121 27.2051 26.719C27.2051 28.3259 28.513 29.5964 30.0825 29.5964C31.2783 29.5964 32.2873 28.8864 32.7357 27.8774H82.8105V25.5232H32.6983C32.2499 24.5516 31.2783 23.8416 30.0825 23.8416Z" fill="#D6234D"></path><path d="M32.7357 3.55004C32.2499 2.54107 31.2783 1.83105 30.0825 1.83105C28.513 1.83105 27.2051 3.13898 27.2051 4.70849C27.2051 6.31536 28.513 7.62328 30.0825 7.62328C31.2783 7.62328 32.2499 6.91327 32.7357 5.9043H82.8105V3.55004H32.7357Z" fill="#D6234D"></path><path d="M6.12891 29.3348C7.13788 28.8864 7.84789 27.8774 7.84789 26.719C7.84789 25.1121 6.53997 23.8416 4.9331 23.8416C3.36359 23.8416 2.05566 25.1121 2.05566 26.719C2.05566 27.8774 2.76568 28.8864 3.77465 29.3348V49.8505H82.8105V47.4963H6.12891V29.3348Z" fill="#D6234D"></path></svg>